<?xml version="1.1" encoding="UTF-8"?>
<svg xmlns="http://www.w3.org/2000/svg"
    xmlns:latexdraw="http://latexdraw.sourceforge.net/namespaces/latexdraw"
    version="1.1" baseProfile="full">
    <g>
        <g latexdraw:type="joinedLines" id="id1737796432">
            <polyline points="245.0,210.0 446.34375,210.015625 "
                stroke-width="0.5" stroke="black"
                latexdraw:rotationAngle="0.0" marker-end="url(#arrow1-1737796432)"/>
        </g>
        <g latexdraw:type="joinedLines" id="id561276172">
            <polyline
                points="305.0000000000002,230.0000000000001 385.0,190.0 "
                stroke-width="0.5" stroke="black"
                latexdraw:rotationAngle="0.0" marker-end="url(#arrow1-561276172)"/>
        </g>
        <g latexdraw:type="joinedLines" id="id434529006">
            <polyline points="345.0,260.0 345.0,135.0 "
                stroke-width="0.5" stroke="black"
                latexdraw:rotationAngle="0.0" marker-end="url(#arrow1-434529006)"/>
        </g>
        <g latexdraw:type="ellipse" id="id964867453">
            <ellipse cx="346.34375" cy="260.015625" rx="49.75" ry="9.75"
                latexdraw:borderPos="outer" stroke-width="0.5"
                stroke="black" fill="none" stroke-dasharray="8.819444444444445, 5.291666666666667"/>
        </g>
        <g latexdraw:type="plot" latexdraw:polar="false"
            latexdraw:eq="x 10 sub x 10 sub mul x 10 sub mul x 10 sub mul 0.02 mul x 10 sub x 10 sub mul sub"
            latexdraw:plotstyle="curve" latexdraw:min="2.0"
            latexdraw:max="17.95" latexdraw:nbpts="50"
            latexdraw:xscale="0.2" latexdraw:yscale="0.08"
            latexdraw:x="245.00000000000003"
            latexdraw:y="209.99999999999847" id="id385076839"
            stroke-width="1.0" stroke="black" fill="none">
            <g latexdraw:type="bezierCurve" id="id1424266020">
                <path
                    d="M 265.0 138.31999999999846 C 266.0741836734694 148.1392051014687 267.0806330787835 158.2674515395396 268.2551020408164 168.07516697415068 C 269.4295710028493 177.88288240876176 270.32624286264615 184.57915914246587 271.51020408163265 192.68519066742857 C 272.69416530061915 200.79122219239127 273.5695992789714 206.08091131226863 274.76530612244903 212.64750487963596 C 275.96101296592667 219.2140984470033 276.80991045212494 223.25709782494417 278.0204081632653 228.4379878332978 C 279.23090587440566 233.61887784165143 280.04625781365223 236.57196296305585 281.2755102040816 240.51096217366023 C 282.504762594511 244.4499613842646 283.27848938949643 246.47134481306625 284.53061224489795 249.29919496869067 C 285.7827351002995 252.1270451243151 286.51225080088267 253.3858147860199 287.78571428571433 255.21389770907803 C 289.059177770546 257.0419806321362 289.77967898304223 257.7253679133241 291.0408163265306 258.6447263082322 C 292.301953670019 259.5640847031403 293.14738356555864 259.80790394910997 294.295918367347 259.95978110228447 C 295.44445316913533 260.11165825545896 296.5309899462979 259.8742146188441 297.5510204081633 259.5056068500875 C 298.5710508700287 259.1369990813308 299.8153368060159 258.3586495701495 300.80612244897964 257.607192733215 C 301.79690809194335 256.8557358962805 303.05556742830856 255.63961527580213 304.06122448979596 254.56797235596218 C 305.06688155128336 253.49632943612224 306.28930343996313 251.9941692069686 307.3163265306123 250.66982374534535 C 308.34334962126144 249.34547828372212 309.5249043976364 247.67663273418992 310.5714285714286 246.17306935110216 C 311.6179527452208 244.6695059680144 312.763145685762 242.92633714306828 313.82653061224494 241.31647604569153 C 314.88991553872785 239.70661494831478 316.003436345142 237.96437835448563 317.08163265306126 236.31725512429364 C 318.1598289609805 234.67013189410164 319.24512381069053 232.99170276868026 320.3367346938776 231.37106230480993 C 321.42834557706465 229.7504218409396 322.48775839870865 228.18823918602655 323.5918367346939 226.65199772786312 C 324.6959150706792 225.1157562696997 325.73120667660214 223.71247537873796 326.84693877551024 222.31260595679723 C 327.96267087441834 220.9127365348565 328.975865152239 219.7012431799702 330.10204081632656 218.48387597767749 C 331.2282164804141 217.26650877538478 332.2231270192878 216.26974653286337 333.3571428571429 215.2752411992904 C 334.491158694998 214.28073586571745 335.47614852901404 213.5122385704078 336.6122448979593 212.77457945314384 C 337.7483412669045 212.0369203358799 338.7401808820087 211.50420246307456 339.86734693877554 211.04821299346685 C 340.9945129955424 210.59222352385913 342.0195513421107 210.30563251906088 343.1224489795919 210.14090849720972 C 344.22534661707317 209.97618447535856 345.309554531265 209.9587676659031 346.3775510204082 210.07587706404414 C 347.4455475095514 210.19298646218516 348.5953863824929 210.47527989780494 349.6326530612246 210.85477421636293 C 350.66991973995624 211.23426853492091 351.86676419448406 211.83219801666098 352.88775510204084 212.45769989928027 C 353.9087460095976 213.08320178189956 355.1248195019485 213.98460856385486 356.1428571428572 214.84319848063157 C 357.16089478376597 215.70178839740828 358.3748858553453 216.87255437194034 359.3979591836735 217.9482587509735 C 360.42103251200166 219.02396313000668 361.6210053156933 220.41865816399348 362.6530612244899 221.68831392358408 C 363.68511713328644 222.95796968317467 364.86522908338077 224.52520652441225 365.9081632653062 225.9572416344625 C 366.95109744723163 227.38927674451273 368.1083177652702 229.07299273037947 369.1632653061225 230.62736394232923 C 370.21821284697484 232.18173515427898 371.3503184185446 233.9211193548018 372.41836734693885 235.5494473286261 C 373.4864162753331 237.17777530245039 374.5908488942356 238.90714817634685 375.6734693877552 240.5527026975161 C 376.75608988127476 242.19825721868537 377.82920271794023 243.8474421739617 378.9285714285715 245.44478537588358 C 380.02794013920277 247.04212857780547 381.0644337133127 248.53783338701643 382.1836734693878 250.0117951133341 C 383.30291322546293 251.48575683965177 384.29586702105547 252.7550731911381 385.4387755102042 254.01827608219452 C 386.58168399935295 255.28147897325093 387.526102237548 256.2597925388864 388.6938775510205 257.2072168775129 C 389.86165286449295 258.1546412161394 390.775146352855 258.79709631018494 391.94897959183686 259.30005051705876 C 393.1228128308187 259.8030047239326 394.10693956591797 260.05137500437843 395.20408163265313 259.9966544413226 C 396.3012236993883 259.9419338782668 397.50679409135415 259.57569547165883 398.4591836734695 258.9753505135165 C 399.41157325558487 258.3750055553742 400.8207726758152 257.0719788602341 401.7142857142858 255.89290501957356 C 402.60779875275637 254.71383117891304 404.07007270202564 252.29486101405303 404.96938775510216 250.38452866814828 C 405.8687028081787 248.47419632224353 407.30612123319855 244.8656565214368 408.22448979591843 242.0638765906164 C 409.1428583586383 239.262096659796 410.54324785549767 234.36773292634211 411.4795918367348 230.52304834107497 C 412.41593581797196 226.67836375580782 413.7835730589153 220.37023857824343 414.7346938775511 215.3325878963423 C 415.68581469618687 210.29493721444115 417.02676503476135 202.42530837300222 417.9897959183674 196.0414836559579 C 418.95282680197346 189.65765893891358 420.27218919996665 180.06556888890643 421.24489795918373 172.1771684421826 C 422.2176067184008 164.28876799545876 423.42581632653065 152.79296365091926 424.5 143.24551949999852 C 425.57418367346935 133.69807534907778 424.5 143.24551949999852 424.5 143.24551949999852 "
                    stroke-width="1.0" stroke="black" fill="none" latexdraw:rotationAngle="0.0"/>
            </g>
        </g>
        <g latexdraw:type="text" id="id1199579708" fill="black" latexdraw:position="bl">
            <text x="422.43243243243273" y="226.21621621621637"><![CDATA[\footnotesize{$Re(\phi)$}]]></text>
        </g>
        <g latexdraw:type="text" id="id391641715" fill="black" latexdraw:position="bl">
            <text x="351.6216216216219" y="187.43243243243256"><![CDATA[\footnotesize{$Im(\phi)$}]]></text>
        </g>
        <g latexdraw:type="text" id="id2009392487" fill="black" latexdraw:position="bl">
            <text x="305.2702702702705" y="142.43243243243253"><![CDATA[\footnotesize{$V(\phi)$}]]></text>
        </g>
        <g latexdraw:type="joinedLines" id="id531696287">
            <polyline points="395.0,207.5 395.0,212.97945205479454 "
                stroke-width="0.7" stroke="black" latexdraw:rotationAngle="0.0"/>
        </g>
        <g latexdraw:type="text" id="id533730983" fill="black" latexdraw:position="bl">
            <text x="392.0" y="205.0"><![CDATA[\footnotesize{$v$}]]></text>
        </g>
        <g latexdraw:type="bezierCurve" id="id377437762">
            <path
                d="M 405.44444444444446 243.0 C 400.0 260.0 391.00000000000045 261.3333333333336 381.0 243.0 "
                stroke-width="0.7" stroke="black" fill="none"
                latexdraw:rotationAngle="0.0"
                marker-start="url(#arrow0-377437762)" marker-end="url(#arrow1-377437762)"/>
        </g>
        <g latexdraw:type="text" id="id863117236" fill="black" latexdraw:position="bl">
            <text x="387.0" y="245.0"><![CDATA[\footnotesize{$h$}]]></text>
        </g>
    </g>
    <defs>
        <marker overflow="visible" orient="auto" id="arrow1-1737796432">
            <path
                d="M 0.0 0.0 L -5.104166666666667 3.645833333333334 L -3.0625 0.0 L -5.104166666666667 -3.645833333333334 z "
                latexdraw:arrSizeNum="2.0" fill="black"/>
        </marker>
        <marker overflow="visible" orient="auto" id="arrow1-561276172">
            <path
                d="M 0.0 0.0 L -5.104166666666667 3.645833333333334 L -3.0625 0.0 L -5.104166666666667 -3.645833333333334 z "
                latexdraw:arrSizeNum="2.0" fill="black"/>
        </marker>
        <marker overflow="visible" orient="auto" id="arrow1-434529006">
            <path
                d="M 0.0 0.0 L -5.104166666666667 3.645833333333334 L -3.0625 0.0 L -5.104166666666667 -3.645833333333334 z "
                latexdraw:arrSizeNum="2.0" fill="black"/>
        </marker>
        <marker overflow="visible" orient="auto" id="arrow0-377437762">
            <path
                d="M 0.0 0.0 L 4.623809523809524 2.8898809523809526 L 4.623809523809524 0.0 L 4.623809523809524 -2.8898809523809526 z "
                latexdraw:arrSizeNum="2.0" fill="black"/>
        </marker>
        <marker overflow="visible" orient="auto" id="arrow1-377437762">
            <path
                d="M 0.0 0.0 L -4.623809523809524 2.8898809523809526 L -4.623809523809524 0.0 L -4.623809523809524 -2.8898809523809526 z "
                latexdraw:arrSizeNum="2.0" fill="black"/>
        </marker>
    </defs>
    <metadata>
        <latexdraw:metadata>
            <latexdraw:latexIncludes><![CDATA[]]></latexdraw:latexIncludes>
            <latexdraw:displayXScale>true</latexdraw:displayXScale>
            <latexdraw:displayYScale>true</latexdraw:displayYScale>
            <latexdraw:unit>CM</latexdraw:unit>
            <latexdraw:zoom>4.499999999999995</latexdraw:zoom>
            <latexdraw:magneticGridStyle>STANDARD</latexdraw:magneticGridStyle>
            <latexdraw:gridGap>30</latexdraw:gridGap>
            <latexdraw:magneticGrid>true</latexdraw:magneticGrid>
            <latexdraw:version>3.3.1</latexdraw:version>
            <latexdraw:size>
                <latexdraw:width>1920</latexdraw:width>
                <latexdraw:height>1019</latexdraw:height>
            </latexdraw:size>
            <latexdraw:position>
                <latexdraw:x>0.0</latexdraw:x>
                <latexdraw:y>28.0</latexdraw:y>
            </latexdraw:position>
        </latexdraw:metadata>
    </metadata>
</svg>
